<?xml version="1.0" standalone="no"?>
<!DOCTYPE svg PUBLIC "-//W3C//DTD SVG 20010904//EN"
 "http://www.w3.org/TR/2001/REC-SVG-20010904/DTD/svg10.dtd">
<svg version="1.0" xmlns="http://www.w3.org/2000/svg"
 width="512.000000pt" height="512.000000pt" viewBox="0 0 512.000000 512.000000"
 preserveAspectRatio="xMidYMid meet">
<metadata>
Created by potrace 1.11, written by Peter Selinger 2001-2013
</metadata>
<g transform="translate(0.000000,512.000000) scale(0.100000,-0.100000)"
fill="#000000" stroke="none">
<path d="M2248 5063 c6 -2 18 -2 25 0 6 3 1 5 -13 5 -14 0 -19 -2 -12 -5z"/>
<path d="M2588 5063 c6 -2 18 -2 25 0 6 3 1 5 -13 5 -14 0 -19 -2 -12 -5z"/>
<path d="M2168 5053 c7 -3 16 -2 19 1 4 3 -2 6 -13 5 -11 0 -14 -3 -6 -6z"/>
<path d="M2275 5049 c-22 -4 -60 -12 -85 -18 -25 -5 -82 -17 -127 -25 -46 -9
-120 -23 -165 -32 -46 -8 -101 -19 -123 -24 -36 -8 -128 -26 -255 -50 -25 -4
-83 -16 -130 -25 -47 -9 -121 -23 -165 -31 -44 -8 -100 -18 -125 -23 -25 -5
-76 -14 -115 -20 -38 -6 -86 -16 -105 -21 -19 -5 -56 -12 -82 -15 -38 -5 -48
-10 -48 -25 0 -20 92 -70 130 -70 11 0 28 -4 38 -10 9 -5 40 -14 67 -20 28 -6
66 -15 85 -20 19 -5 58 -14 85 -20 28 -6 57 -14 65 -17 8 -4 40 -13 70 -20 30
-7 71 -18 90 -23 19 -5 58 -14 85 -20 28 -6 59 -15 70 -20 11 -4 58 -17 105
-28 143 -34 254 -63 270 -69 8 -4 40 -13 70 -20 30 -7 71 -18 90 -23 19 -5 58
-14 85 -20 28 -6 57 -15 66 -20 9 -5 62 -14 118 -21 87 -11 113 -11 193 3 88
16 164 33 253 58 22 6 65 17 95 25 30 7 100 25 155 40 55 15 127 33 160 41 33
8 76 19 95 24 19 5 60 16 90 23 30 7 62 16 70 19 8 4 26 9 40 12 24 5 107 25
181 44 20 5 43 13 50 17 8 4 1 -4 -16 -18 -16 -14 -32 -24 -35 -22 -3 2 -4
-103 -2 -233 l3 -235 -32 -64 c-30 -60 -31 -66 -19 -109 14 -49 9 -181 -8
-224 -25 -64 -37 -120 -37 -180 l0 -64 38 -9 c21 -5 86 -6 143 -2 l105 7 -6
32 c-4 17 -11 45 -16 61 -12 41 -49 190 -60 245 -10 47 -3 120 11 120 5 0 11
18 15 41 6 34 3 46 -21 81 l-28 41 -2 246 c0 135 -4 256 -8 268 -6 19 -2 22
41 33 76 18 155 38 198 50 22 6 59 16 83 21 76 19 47 60 -58 81 -25 5 -79 15
-120 23 -41 8 -95 18 -120 24 -25 5 -85 17 -135 26 -197 37 -252 47 -295 56
-25 6 -81 17 -125 25 -44 8 -100 19 -125 24 -25 5 -81 16 -125 24 -103 19
-238 45 -295 57 -146 30 -304 37 -395 18z"/>
<path d="M2678 5053 c7 -3 16 -2 19 1 4 3 -2 6 -13 5 -11 0 -14 -3 -6 -6z"/>
<path d="M2088 5033 c7 -3 16 -2 19 1 4 3 -2 6 -13 5 -11 0 -14 -3 -6 -6z"/>
<path d="M2758 5033 c6 -2 18 -2 25 0 6 3 1 5 -13 5 -14 0 -19 -2 -12 -5z"/>
<path d="M1998 5013 c7 -3 16 -2 19 1 4 3 -2 6 -13 5 -11 0 -14 -3 -6 -6z"/>
<path d="M2848 5013 c7 -3 16 -2 19 1 4 3 -2 6 -13 5 -11 0 -14 -3 -6 -6z"/>
<path d="M1918 5003 c7 -3 16 -2 19 1 4 3 -2 6 -13 5 -11 0 -14 -3 -6 -6z"/>
<path d="M2928 5003 c6 -2 18 -2 25 0 6 3 1 5 -13 5 -14 0 -19 -2 -12 -5z"/>
<path d="M1828 4983 c6 -2 18 -2 25 0 6 3 1 5 -13 5 -14 0 -19 -2 -12 -5z"/>
<path d="M3013 4983 c9 -2 23 -2 30 0 6 3 -1 5 -18 5 -16 0 -22 -2 -12 -5z"/>
<path d="M3090 4976 c0 -2 7 -6 15 -10 8 -3 15 -1 15 4 0 6 -7 10 -15 10 -8 0
-15 -2 -15 -4z"/>
<path d="M1658 4953 c6 -2 18 -2 25 0 6 3 1 5 -13 5 -14 0 -19 -2 -12 -5z"/>
<path d="M3178 4953 c6 -2 18 -2 25 0 6 3 1 5 -13 5 -14 0 -19 -2 -12 -5z"/>
<path d="M1578 4933 c6 -2 18 -2 25 0 6 3 1 5 -13 5 -14 0 -19 -2 -12 -5z"/>
<path d="M3268 4933 c6 -2 18 -2 25 0 6 3 1 5 -13 5 -14 0 -19 -2 -12 -5z"/>
<path d="M1498 4923 c7 -3 16 -2 19 1 4 3 -2 6 -13 5 -11 0 -14 -3 -6 -6z"/>
<path d="M3348 4923 c6 -2 18 -2 25 0 6 3 1 5 -13 5 -14 0 -19 -2 -12 -5z"/>
<path d="M1408 4903 c6 -2 18 -2 25 0 6 3 1 5 -13 5 -14 0 -19 -2 -12 -5z"/>
<path d="M3438 4903 c7 -3 16 -2 19 1 4 3 -2 6 -13 5 -11 0 -14 -3 -6 -6z"/>
<path d="M1318 4883 c6 -2 18 -2 25 0 6 3 1 5 -13 5 -14 0 -19 -2 -12 -5z"/>
<path d="M3528 4883 c7 -3 16 -2 19 1 4 3 -2 6 -13 5 -11 0 -14 -3 -6 -6z"/>
<path d="M1238 4873 c6 -2 18 -2 25 0 6 3 1 5 -13 5 -14 0 -19 -2 -12 -5z"/>
<path d="M3598 4873 c6 -2 18 -2 25 0 6 3 1 5 -13 5 -14 0 -19 -2 -12 -5z"/>
<path d="M1153 4853 c9 -2 23 -2 30 0 6 3 -1 5 -18 5 -16 0 -22 -2 -12 -5z"/>
<path d="M3683 4853 c9 -2 23 -2 30 0 6 3 -1 5 -18 5 -16 0 -22 -2 -12 -5z"/>
<path d="M978 4823 c6 -2 18 -2 25 0 6 3 1 5 -13 5 -14 0 -19 -2 -12 -5z"/>
<path d="M3858 4823 c7 -3 16 -2 19 1 4 3 -2 6 -13 5 -11 0 -14 -3 -6 -6z"/>
<path d="M898 4803 c7 -3 16 -2 19 1 4 3 -2 6 -13 5 -11 0 -14 -3 -6 -6z"/>
<path d="M3938 4803 c7 -3 16 -2 19 1 4 3 -2 6 -13 5 -11 0 -14 -3 -6 -6z"/>
<path d="M4048 4663 c7 -3 16 -2 19 1 4 3 -2 6 -13 5 -11 0 -14 -3 -6 -6z"/>
<path d="M928 4633 c7 -3 16 -2 19 1 4 3 -2 6 -13 5 -11 0 -14 -3 -6 -6z"/>
<path d="M3928 4633 c6 -2 18 -2 25 0 6 3 1 5 -13 5 -14 0 -19 -2 -12 -5z"/>
<path d="M988 4613 c7 -3 16 -2 19 1 4 3 -2 6 -13 5 -11 0 -14 -3 -6 -6z"/>
<path d="M3800 4600 c0 -5 4 -10 9 -10 6 0 13 5 16 10 3 6 -1 10 -9 10 -9 0
-16 -4 -16 -10z"/>
<path d="M1108 4583 c6 -2 18 -2 25 0 6 3 1 5 -13 5 -14 0 -19 -2 -12 -5z"/>
<path d="M1168 4563 c6 -2 18 -2 25 0 6 3 1 5 -13 5 -14 0 -19 -2 -12 -5z"/>
<path d="M3642 4540 c0 -14 2 -19 5 -12 2 6 2 18 0 25 -3 6 -5 1 -5 -13z"/>
<path d="M1298 4533 c7 -3 16 -2 19 1 4 3 -2 6 -13 5 -11 0 -14 -3 -6 -6z"/>
<path d="M3548 4533 c7 -3 16 -2 19 1 4 3 -2 6 -13 5 -11 0 -14 -3 -6 -6z"/>
<path d="M1428 4503 c7 -3 16 -2 19 1 4 3 -2 6 -13 5 -11 0 -14 -3 -6 -6z"/>
<path d="M3418 4503 c7 -3 16 -2 19 1 4 3 -2 6 -13 5 -11 0 -14 -3 -6 -6z"/>
<path d="M1488 4483 c7 -3 16 -2 19 1 4 3 -2 6 -13 5 -11 0 -14 -3 -6 -6z"/>
<path d="M3358 4483 c7 -3 16 -2 19 1 4 3 -2 6 -13 5 -11 0 -14 -3 -6 -6z"/>
<path d="M1547 4427 c2 -29 8 -90 13 -137 5 -47 12 -119 15 -160 7 -94 33
-148 100 -207 129 -114 368 -205 615 -234 90 -11 320 -4 367 10 15 5 64 17
108 27 44 10 84 21 90 26 5 4 15 8 23 8 8 0 43 14 79 30 35 17 66 30 68 30 14
0 148 91 183 124 64 61 72 84 82 241 6 77 13 165 16 197 8 71 4 78 -43 67 -21
-5 -56 -13 -78 -19 -41 -9 -143 -34 -205 -50 -19 -5 -57 -14 -85 -20 -27 -6
-59 -15 -70 -20 -18 -7 -43 -14 -195 -56 -30 -9 -64 -19 -76 -24 -38 -15 -128
-21 -179 -11 -86 17 -149 32 -170 41 -11 4 -51 16 -90 25 -38 9 -79 21 -90 25
-11 5 -36 12 -55 15 -19 4 -55 14 -80 22 -45 15 -72 22 -230 62 -47 12 -92 26
-101 31 -14 7 -15 1 -12 -43z"/>
<path d="M3783 4340 c0 -47 2 -66 4 -42 2 23 2 61 0 85 -2 23 -4 4 -4 -43z"/>
<path d="M1522 4370 c0 -14 2 -19 5 -12 2 6 2 18 0 25 -3 6 -5 1 -5 -13z"/>
<path d="M2333 4273 c9 -2 23 -2 30 0 6 3 -1 5 -18 5 -16 0 -22 -2 -12 -5z"/>
<path d="M2490 4271 c0 -4 11 -6 25 -3 14 2 25 6 25 8 0 2 -11 4 -25 4 -14 0
-25 -4 -25 -9z"/>
<path d="M1542 4190 c0 -19 2 -27 5 -17 2 9 2 25 0 35 -3 9 -5 1 -5 -18z"/>
<path d="M3313 4150 c0 -25 2 -35 4 -22 2 12 2 32 0 45 -2 12 -4 2 -4 -23z"/>
<path d="M3782 4070 c0 -14 2 -19 5 -12 2 6 2 18 0 25 -3 6 -5 1 -5 -13z"/>
<path d="M3832 3980 c0 -14 2 -19 5 -12 2 6 2 18 0 25 -3 6 -5 1 -5 -13z"/>
<path d="M3810 3919 c0 -5 5 -7 10 -4 6 3 10 8 10 11 0 2 -4 4 -10 4 -5 0 -10
-5 -10 -11z"/>
<path d="M3198 3902 c-10 -27 -273 -172 -311 -172 -7 0 -17 -4 -22 -9 -6 -5
-32 -14 -60 -21 -27 -6 -68 -15 -90 -21 -80 -19 -172 -28 -285 -28 -113 0
-205 9 -285 28 -22 6 -62 15 -90 21 -27 7 -54 16 -60 21 -5 5 -15 9 -23 9 -18
0 -242 110 -242 119 0 3 -20 17 -44 31 -43 23 -46 23 -65 6 -20 -18 -24 -43
-37 -205 -8 -106 20 -250 74 -371 59 -132 187 -288 292 -356 25 -16 47 -31 50
-34 12 -12 120 -60 170 -75 30 -9 71 -22 90 -27 49 -15 264 -14 330 2 76 18
135 38 200 68 254 117 437 367 470 642 6 47 13 93 16 103 5 17 -8 126 -27 225
-8 40 -15 52 -29 52 -10 0 -20 -4 -22 -8z"/>
<path d="M3613 3840 c0 -25 2 -35 4 -22 2 12 2 32 0 45 -2 12 -4 2 -4 -23z"/>
<path d="M1572 3850 c0 -14 2 -19 5 -12 2 6 2 18 0 25 -3 6 -5 1 -5 -13z"/>
<path d="M3282 3810 c0 -14 2 -19 5 -12 2 6 2 18 0 25 -3 6 -5 1 -5 -13z"/>
<path d="M3801 3784 c0 -11 3 -14 6 -6 3 7 2 16 -1 19 -3 4 -6 -2 -5 -13z"/>
<path d="M1564 3655 c0 -55 1 -76 3 -47 2 29 2 74 0 100 -2 26 -3 2 -3 -53z"/>
<path d="M3591 3734 c0 -11 3 -14 6 -6 3 7 2 16 -1 19 -3 4 -6 -2 -5 -13z"/>
<path d="M3293 3655 c0 -22 2 -30 4 -17 2 12 2 30 0 40 -3 9 -5 -1 -4 -23z"/>
<path d="M3570 3680 c0 -5 5 -10 10 -10 6 0 10 5 10 10 0 6 -4 10 -10 10 -5 0
-10 -4 -10 -10z"/>
<path d="M3832 3650 c0 -14 2 -19 5 -12 2 6 2 18 0 25 -3 6 -5 1 -5 -13z"/>
<path d="M3562 3620 c0 -14 2 -19 5 -12 2 6 2 18 0 25 -3 6 -5 1 -5 -13z"/>
<path d="M3852 3590 c0 -14 2 -19 5 -12 2 6 2 18 0 25 -3 6 -5 1 -5 -13z"/>
<path d="M3542 3540 c0 -14 2 -19 5 -12 2 6 2 18 0 25 -3 6 -5 1 -5 -13z"/>
<path d="M3861 3524 c0 -11 3 -14 6 -6 3 7 2 16 -1 19 -3 4 -6 -2 -5 -13z"/>
<path d="M3281 3504 c0 -11 3 -14 6 -6 3 7 2 16 -1 19 -3 4 -6 -2 -5 -13z"/>
<path d="M1571 3484 c0 -11 3 -14 6 -6 3 7 2 16 -1 19 -3 4 -6 -2 -5 -13z"/>
<path d="M3262 3430 c0 -14 2 -19 5 -12 2 6 2 18 0 25 -3 6 -5 1 -5 -13z"/>
<path d="M1592 3420 c0 -14 2 -19 5 -12 2 6 2 18 0 25 -3 6 -5 1 -5 -13z"/>
<path d="M3231 3334 c0 -11 3 -14 6 -6 3 7 2 16 -1 19 -3 4 -6 -2 -5 -13z"/>
<path d="M2240 2796 c0 -2 16 -6 35 -8 19 -2 35 0 35 4 0 4 -16 8 -35 8 -19 0
-35 -2 -35 -4z"/>
<path d="M2537 2789 c8 -8 16 -8 30 0 16 9 14 10 -11 11 -22 0 -27 -3 -19 -11z"/>
<path d="M2274 2745 c-65 -51 -70 -132 -12 -192 17 -18 37 -33 43 -33 7 0 20
-9 30 -19 33 -37 8 -145 -66 -293 -45 -88 -52 -109 -52 -163 -1 -58 22 -124
74 -218 5 -10 7 -28 4 -40 -5 -16 -4 -18 3 -8 8 11 20 -7 51 -73 23 -49 39
-91 37 -95 -3 -4 11 -5 30 -3 44 5 65 34 128 167 26 55 56 118 68 140 12 24
22 69 25 112 6 71 5 73 -46 177 -73 147 -97 248 -71 297 6 10 17 19 25 19 7 0
29 15 48 33 64 60 57 145 -16 195 -30 20 -45 22 -153 22 -111 0 -121 -2 -150
-25z"/>
<path d="M2191 2644 c0 -11 3 -14 6 -6 3 7 2 16 -1 19 -3 4 -6 -2 -5 -13z"/>
<path d="M1658 2593 c6 -2 18 -2 25 0 6 3 1 5 -13 5 -14 0 -19 -2 -12 -5z"/>
<path d="M1798 2593 c7 -3 16 -2 19 1 4 3 -2 6 -13 5 -11 0 -14 -3 -6 -6z"/>
<path d="M3198 2593 c7 -3 16 -2 19 1 4 3 -2 6 -13 5 -11 0 -14 -3 -6 -6z"/>
<path d="M3050 2571 c-25 -10 -57 -34 -72 -52 -24 -30 -128 -223 -235 -439
-21 -41 -40 -77 -43 -80 -3 -3 -34 -61 -69 -130 -191 -373 -176 -350 -215
-325 -29 19 -44 41 -115 178 -49 95 -66 143 -36 103 8 -11 15 -16 15 -10 0 5
-7 17 -14 27 -10 13 -15 15 -19 5 -2 -8 -10 -1 -18 17 -7 17 -16 32 -19 35 -3
3 -35 64 -71 135 -172 340 -243 472 -268 497 -51 54 -192 55 -300 3 -54 -27
-177 -101 -197 -120 -6 -5 -33 -28 -60 -49 -40 -32 -129 -126 -189 -199 -51
-62 -175 -286 -175 -316 0 -6 -4 -19 -9 -29 -8 -15 -18 -54 -50 -194 -17 -73
-14 -142 7 -160 37 -32 75 -36 472 -57 113 -6 259 -16 325 -21 66 -6 397 -10
735 -10 338 0 669 4 735 10 66 5 212 15 325 21 397 21 435 25 473 57 19 17 23
90 8 151 -5 20 -15 61 -21 91 -31 137 -93 279 -173 394 -18 26 -25 47 -21 60
4 17 3 18 -5 6 -9 -13 -13 -11 -27 10 -18 27 -182 191 -224 225 -77 63 -227
143 -315 170 -63 19 -79 18 -135 -4z"/>
<path d="M1840 2576 c0 -2 7 -7 16 -10 8 -3 12 -2 9 4 -6 10 -25 14 -25 6z"/>
<path d="M2322 2450 c0 -19 2 -27 5 -17 2 9 2 25 0 35 -3 9 -5 1 -5 -18z"/>
<path d="M2545 2360 c3 -5 8 -10 11 -10 2 0 4 5 4 10 0 6 -5 10 -11 10 -5 0
-7 -4 -4 -10z"/>
<path d="M2561 2304 c0 -11 3 -14 6 -6 3 7 2 16 -1 19 -3 4 -6 -2 -5 -13z"/>
<path d="M2041 2264 c0 -11 3 -14 6 -6 3 7 2 16 -1 19 -3 4 -6 -2 -5 -13z"/>
<path d="M2811 2264 c0 -11 3 -14 6 -6 3 7 2 16 -1 19 -3 4 -6 -2 -5 -13z"/>
<path d="M2641 2134 c0 -11 3 -14 6 -6 3 7 2 16 -1 19 -3 4 -6 -2 -5 -13z"/>
<path d="M1046 2093 c-6 -14 -5 -15 5 -6 7 7 10 15 7 18 -3 3 -9 -2 -12 -12z"/>
<path d="M2663 2040 c0 -36 2 -50 4 -32 2 17 2 47 0 65 -2 17 -4 3 -4 -33z"/>
<path d="M2171 2014 c0 -11 3 -14 6 -6 3 7 2 16 -1 19 -3 4 -6 -2 -5 -13z"/>
<path d="M2191 1984 c0 -11 3 -14 6 -6 3 7 2 16 -1 19 -3 4 -6 -2 -5 -13z"/>
<path d="M2646 1961 c-4 -7 -5 -15 -2 -18 9 -9 19 4 14 18 -4 11 -6 11 -12 0z"/>
<path d="M2200 1953 c0 -5 8 -17 17 -28 14 -18 15 -18 9 -2 -3 10 -6 23 -6 28
0 5 -4 9 -10 9 -5 0 -10 -3 -10 -7z"/>
<path d="M921 1844 c0 -11 3 -14 6 -6 3 7 2 16 -1 19 -3 4 -6 -2 -5 -13z"/>
<path d="M892 1750 c0 -14 2 -19 5 -12 2 6 2 18 0 25 -3 6 -5 1 -5 -13z"/>
<path d="M3962 1750 c0 -14 2 -19 5 -12 2 6 2 18 0 25 -3 6 -5 1 -5 -13z"/>
<path d="M871 1684 c0 -11 3 -14 6 -6 3 7 2 16 -1 19 -3 4 -6 -2 -5 -13z"/>
<path d="M2475 1619 c-4 -6 -5 -12 -2 -15 2 -3 7 2 10 11 7 17 1 20 -8 4z"/>
<path d="M861 1584 c0 -11 3 -14 6 -6 3 7 2 16 -1 19 -3 4 -6 -2 -5 -13z"/>
<path d="M3992 1575 c0 -16 2 -22 5 -12 2 9 2 23 0 30 -3 6 -5 -1 -5 -18z"/>
<path d="M2400 1582 c0 -12 19 -26 26 -19 2 2 -2 10 -11 17 -9 8 -15 8 -15 2z"/>
<path d="M598 1423 c6 -2 18 -2 25 0 6 3 1 5 -13 5 -14 0 -19 -2 -12 -5z"/>
<path d="M828 1423 c12 -2 32 -2 45 0 12 2 2 4 -23 4 -25 0 -35 -2 -22 -4z"/>
<path d="M908 1423 c7 -3 16 -2 19 1 4 3 -2 6 -13 5 -11 0 -14 -3 -6 -6z"/>
<path d="M3928 1423 c6 -2 18 -2 25 0 6 3 1 5 -13 5 -14 0 -19 -2 -12 -5z"/>
<path d="M4008 1423 c18 -2 45 -2 60 0 15 2 0 4 -33 4 -33 0 -45 -2 -27 -4z"/>
<path d="M4253 1423 c9 -2 23 -2 30 0 6 3 -1 5 -18 5 -16 0 -22 -2 -12 -5z"/>
<path d="M1004 1408 c-3 -4 23 -7 58 -7 66 1 62 6 -10 11 -24 2 -46 0 -48 -4z"/>
<path d="M3785 1410 c-46 -6 -44 -7 29 -8 44 -1 77 0 75 2 -11 9 -59 12 -104
6z"/>
<path d="M559 1386 c-89 -34 -169 -110 -206 -196 -47 -111 -48 -119 -48 -325
0 -210 3 -230 55 -337 11 -22 17 -45 13 -51 -3 -6 -1 -7 4 -4 6 4 21 -6 34
-22 35 -43 120 -96 182 -116 45 -14 79 -16 188 -11 74 3 166 10 204 15 39 6
126 15 195 20 69 6 179 15 245 21 66 6 219 10 340 10 252 0 274 6 337 79 23
27 38 37 41 29 2 -7 2 10 -1 37 -2 28 -7 53 -11 57 -6 7 -71 3 -331 -22 -47
-4 -143 -13 -215 -19 -71 -6 -152 -13 -180 -15 -27 -3 -129 -12 -225 -21 -325
-29 -385 -35 -423 -41 -21 -4 -59 0 -85 7 -124 34 -199 124 -228 276 -12 66
-12 87 1 169 23 143 77 239 157 279 40 19 106 19 146 -1 65 -32 122 -134 122
-218 0 -43 -30 -115 -60 -141 -26 -23 -89 -26 -115 -5 -26 22 -55 96 -55 141
0 33 -4 41 -26 49 -55 21 -68 14 -83 -42 -7 -29 -15 -102 -18 -163 -5 -107 -4
-112 24 -165 56 -106 146 -139 332 -121 152 15 196 19 386 37 94 8 211 20 260
25 50 5 169 16 265 25 96 8 211 19 255 23 124 11 150 32 158 131 10 116 -21
316 -64 420 -43 101 -62 113 -192 122 -383 26 -589 41 -777 54 -317 23 -557
27 -601 10z"/>
<path d="M1225 1389 c22 -4 60 -8 85 -7 37 0 41 1 20 8 -14 4 -52 8 -85 8 -57
0 -58 -1 -20 -9z"/>
<path d="M3530 1390 c-20 -7 -17 -8 20 -8 25 0 68 3 95 8 50 7 50 7 -20 8 -38
0 -81 -4 -95 -8z"/>
<path d="M3978 1395 c-3 -3 -117 -13 -254 -21 -240 -15 -590 -37 -799 -52 -81
-6 -100 -10 -98 -22 4 -25 30 -134 37 -150 13 -33 33 -318 26 -385 -11 -117
-4 -122 225 -142 88 -7 198 -18 245 -23 47 -5 162 -16 255 -25 94 -8 184 -17
200 -19 17 -3 118 -12 225 -21 107 -9 217 -20 243 -26 27 -5 79 -9 116 -9 61
0 70 3 95 29 29 30 40 64 58 186 11 77 4 318 -10 356 -5 13 -15 42 -22 64 -37
118 -100 199 -185 239 -50 24 -64 26 -203 26 -82 0 -151 -2 -154 -5z"/>
<path d="M1483 1373 c26 -2 67 -2 90 0 23 2 2 3 -48 3 -49 0 -68 -1 -42 -3z"/>
<path d="M3293 1373 c26 -2 68 -2 95 0 26 2 4 3 -48 3 -52 0 -74 -1 -47 -3z"/>
<path d="M1710 1360 c0 -6 44 -10 111 -10 71 0 108 4 104 10 -3 6 -52 10 -111
10 -63 0 -104 -4 -104 -10z"/>
<path d="M2935 1360 c-4 -6 33 -10 104 -10 67 0 111 4 111 10 0 6 -41 10 -104
10 -59 0 -108 -4 -111 -10z"/>
<path d="M1983 1343 c9 -2 23 -2 30 0 6 3 -1 5 -18 5 -16 0 -22 -2 -12 -5z"/>
<path d="M2298 1343 c83 -2 221 -2 305 0 83 1 15 3 -153 3 -168 0 -236 -2
-152 -3z"/>
<path d="M2858 1343 c6 -2 18 -2 25 0 6 3 1 5 -13 5 -14 0 -19 -2 -12 -5z"/>
<path d="M2135 1293 c3 -16 12 -41 20 -58 14 -32 35 -106 55 -194 16 -67 16
-323 0 -382 -6 -24 -19 -71 -27 -104 -9 -33 -20 -64 -25 -70 -4 -5 -8 -22 -8
-37 l0 -28 310 0 310 0 15 23 c8 13 23 50 34 83 62 195 60 453 -4 664 -9 30
-18 65 -18 77 -1 12 -4 20 -6 17 -2 -2 -16 5 -31 16 -26 19 -46 20 -330 20
l-302 0 7 -27z"/>
<path d="M2120 1251 c0 -6 4 -13 10 -16 6 -3 7 1 4 9 -7 18 -14 21 -14 7z"/>
<path d="M658 1193 c12 -2 30 -2 40 0 9 3 -1 5 -23 4 -22 0 -30 -2 -17 -4z"/>
<path d="M4551 1114 c0 -11 3 -14 6 -6 3 7 2 16 -1 19 -3 4 -6 -2 -5 -13z"/>
<path d="M291 1084 c0 -11 3 -14 6 -6 3 7 2 16 -1 19 -3 4 -6 -2 -5 -13z"/>
<path d="M568 1063 c6 -2 18 -2 25 0 6 3 1 5 -13 5 -14 0 -19 -2 -12 -5z"/>
<path d="M4562 1050 c0 -14 2 -19 5 -12 2 6 2 18 0 25 -3 6 -5 1 -5 -13z"/>
<path d="M273 985 c0 -22 2 -30 4 -17 2 12 2 30 0 40 -3 9 -5 -1 -4 -23z"/>
<path d="M842 990 c0 -19 2 -27 5 -17 2 9 2 25 0 35 -3 9 -5 1 -5 -18z"/>
<path d="M662 975 c0 -16 2 -22 5 -12 2 9 2 23 0 30 -3 6 -5 -1 -5 -18z"/>
<path d="M501 954 c0 -11 3 -14 6 -6 3 7 2 16 -1 19 -3 4 -6 -2 -5 -13z"/>
<path d="M462 930 c0 -19 2 -27 5 -17 2 9 2 25 0 35 -3 9 -5 1 -5 -18z"/>
<path d="M671 904 c0 -11 3 -14 6 -6 3 7 2 16 -1 19 -3 4 -6 -2 -5 -13z"/>
<path d="M482 865 c0 -16 2 -22 5 -12 2 9 2 23 0 30 -3 6 -5 -1 -5 -18z"/>
<path d="M693 870 c2 -8 12 -16 23 -17 13 -2 15 -1 4 4 -8 3 -19 11 -23 17 -6
7 -7 6 -4 -4z"/>
<path d="M780 860 c-13 -8 -12 -10 3 -10 9 0 17 5 17 10 0 12 -1 12 -20 0z"/>
<path d="M272 740 c0 -19 2 -27 5 -17 2 9 2 25 0 35 -3 9 -5 1 -5 -18z"/>
<path d="M462 750 c0 -14 2 -19 5 -12 2 6 2 18 0 25 -3 6 -5 1 -5 -13z"/>
<path d="M483 720 c0 -25 2 -35 4 -22 2 12 2 32 0 45 -2 12 -4 2 -4 -23z"/>
<path d="M501 674 c0 -11 3 -14 6 -6 3 7 2 16 -1 19 -3 4 -6 -2 -5 -13z"/>
<path d="M2871 664 c0 -11 3 -14 6 -6 3 7 2 16 -1 19 -3 4 -6 -2 -5 -13z"/>
<path d="M4562 660 c0 -14 2 -19 5 -12 2 6 2 18 0 25 -3 6 -5 1 -5 -13z"/>
<path d="M2038 623 c18 -2 45 -2 60 0 15 2 0 4 -33 4 -33 0 -45 -2 -27 -4z"/>
<path d="M1850 610 c0 -6 28 -10 65 -10 37 0 65 4 65 10 0 6 -28 10 -65 10
-37 0 -65 -4 -65 -10z"/>
<path d="M2950 610 c20 -13 80 -13 80 0 0 6 -21 10 -47 10 -35 0 -44 -3 -33
-10z"/>
<path d="M301 594 c0 -11 3 -14 6 -6 3 7 2 16 -1 19 -3 4 -6 -2 -5 -13z"/>
<path d="M4551 594 c0 -11 3 -14 6 -6 3 7 2 16 -1 19 -3 4 -6 -2 -5 -13z"/>
<path d="M1703 593 c20 -2 54 -2 75 0 20 2 3 4 -38 4 -41 0 -58 -2 -37 -4z"/>
<path d="M2850 591 c0 -6 4 -13 10 -16 6 -3 7 1 4 9 -7 18 -14 21 -14 7z"/>
<path d="M3083 593 c26 -2 67 -2 90 0 23 2 2 3 -48 3 -49 0 -68 -1 -42 -3z"/>
<path d="M2150 578 c0 -7 5 -20 10 -28 8 -12 10 -9 10 13 0 15 -4 27 -10 27
-5 0 -10 -6 -10 -12z"/>
<path d="M1533 573 c20 -2 54 -2 75 0 20 2 3 4 -38 4 -41 0 -58 -2 -37 -4z"/>
<path d="M3288 573 c23 -2 59 -2 80 0 20 2 1 4 -43 4 -44 0 -61 -2 -37 -4z"/>
<path d="M1330 560 c0 -13 90 -13 110 0 11 7 -3 10 -47 10 -36 0 -63 -4 -63
-10z"/>
<path d="M2878 553 c-29 -19 -48 -52 -48 -86 0 -30 9 -41 47 -61 26 -13 66
-16 230 -16 108 0 245 -4 303 -10 58 -5 175 -15 260 -21 85 -6 189 -15 230
-20 143 -18 309 -22 358 -9 119 30 172 57 172 85 0 28 -11 31 -205 51 -217 22
-230 23 -335 34 -52 6 -151 15 -220 21 -69 5 -206 17 -305 25 -99 8 -243 17
-320 20 -121 4 -144 2 -167 -13z"/>
<path d="M3450 560 c36 -12 100 -12 100 0 0 6 -27 10 -62 9 -47 -1 -57 -3 -38
-9z"/>
<path d="M567 549 c7 -7 15 -10 18 -7 3 3 -2 9 -12 12 -14 6 -15 5 -6 -5z"/>
<path d="M1177 543 c18 -2 50 -2 70 0 21 2 7 4 -32 4 -38 0 -55 -2 -38 -4z"/>
<path d="M3638 543 c18 -2 45 -2 60 0 15 2 0 4 -33 4 -33 0 -45 -2 -27 -4z"/>
<path d="M980 530 c-17 -6 -3 -8 48 -9 39 -1 72 3 72 8 0 11 -85 11 -120 1z"/>
<path d="M3790 530 c0 -6 25 -10 58 -9 43 1 51 3 32 9 -36 12 -90 12 -90 0z"/>
<path d="M693 513 c9 -2 25 -2 35 0 9 3 1 5 -18 5 -19 0 -27 -2 -17 -5z"/>
<path d="M800 510 c14 -9 108 -5 118 5 3 3 -26 5 -64 5 -47 0 -64 -3 -54 -10z"/>
<path d="M3992 509 c18 -7 33 -7 45 0 14 8 9 10 -27 10 -42 -1 -43 -1 -18 -10z"/>
<path d="M4148 493 c18 -2 45 -2 60 0 15 2 0 4 -33 4 -33 0 -45 -2 -27 -4z"/>
<path d="M4285 480 c3 -5 29 -10 56 -10 31 0 48 4 44 10 -3 6 -29 10 -56 10
-31 0 -48 -4 -44 -10z"/>
<path d="M2120 469 c0 -5 5 -7 10 -4 6 3 10 8 10 11 0 2 -4 4 -10 4 -5 0 -10
-5 -10 -11z"/>
<path d="M2157 383 c-46 -5 -47 -27 -2 -52 82 -44 156 -124 171 -186 4 -17 15
-49 25 -72 26 -61 47 -56 83 20 49 103 68 130 78 115 6 -9 7 -6 3 10 -11 38
35 27 169 -42 69 -35 134 -66 147 -69 21 -6 21 -4 16 52 -2 32 -9 66 -14 77
-6 10 -19 37 -29 59 -21 45 -48 73 -82 86 -22 9 -486 10 -565 2z"/>
<path d="M1958 363 c6 -2 18 -2 25 0 6 3 1 5 -13 5 -14 0 -19 -2 -12 -5z"/>
<path d="M2983 363 c43 -2 110 -2 150 0 40 1 5 3 -78 3 -82 0 -115 -2 -72 -3z"/>
<path d="M1333 353 c15 -2 39 -2 55 0 15 2 2 4 -28 4 -30 0 -43 -2 -27 -4z"/>
<path d="M3453 353 c15 -2 37 -2 50 0 12 2 0 4 -28 4 -27 0 -38 -2 -22 -4z"/>
<path d="M1133 333 c9 -2 25 -2 35 0 9 3 1 5 -18 5 -19 0 -27 -2 -17 -5z"/>
<path d="M3693 333 c9 -2 25 -2 35 0 9 3 1 5 -18 5 -19 0 -27 -2 -17 -5z"/>
<path d="M998 313 c7 -3 16 -2 19 1 4 3 -2 6 -13 5 -11 0 -14 -3 -6 -6z"/>
<path d="M3858 313 c6 -2 18 -2 25 0 6 3 1 5 -13 5 -14 0 -19 -2 -12 -5z"/>
<path d="M613 303 c9 -2 25 -2 35 0 9 3 1 5 -18 5 -19 0 -27 -2 -17 -5z"/>
<path d="M853 303 c9 -2 25 -2 35 0 9 3 1 5 -18 5 -19 0 -27 -2 -17 -5z"/>
<path d="M2165 300 c3 -5 8 -10 11 -10 2 0 4 5 4 10 0 6 -5 10 -11 10 -5 0 -7
-4 -4 -10z"/>
<path d="M4018 303 c12 -2 32 -2 45 0 12 2 2 4 -23 4 -25 0 -35 -2 -22 -4z"/>
<path d="M4198 303 c12 -2 30 -2 40 0 9 3 -1 5 -23 4 -22 0 -30 -2 -17 -4z"/>
<path d="M2232 246 c7 -8 15 -12 17 -11 5 6 -10 25 -20 25 -5 0 -4 -6 3 -14z"/>
<path d="M2530 219 c0 -5 5 -7 10 -4 6 3 10 8 10 11 0 2 -4 4 -10 4 -5 0 -10
-5 -10 -11z"/>
<path d="M2872 145 c0 -16 2 -22 5 -12 2 9 2 23 0 30 -3 6 -5 -1 -5 -18z"/>
</g>
</svg>
